<?xml version="1.0" encoding="utf-8"?>
<!-- Generator: Adobe Illustrator 16.0.0, SVG Export Plug-In . SVG Version: 6.00 Build 0)  -->
<!DOCTYPE svg PUBLIC "-//W3C//DTD SVG 1.1//EN" "http://www.w3.org/Graphics/SVG/1.1/DTD/svg11.dtd">
<svg version="1.1" id="Layer_1" xmlns="http://www.w3.org/2000/svg" xmlns:xlink="http://www.w3.org/1999/xlink" x="0px" y="0px"
	 width="22.857px" height="34.774px" viewBox="0 0 22.857 34.774" enable-background="new 0 0 22.857 34.774" xml:space="preserve">
<g id="map_x5F_pin_x5F_stroke_2_">
	<g>
		<g>
			<path fill="#BF198D" d="M12.239,34.774h-1.633c0-8.053-7.181-15.19-7.253-15.262C1.188,17.35,0,14.481,0,11.427
				c0-3.053,1.188-5.922,3.349-8.079C5.506,1.189,8.375,0,11.425,0c3.054,0,5.924,1.189,8.084,3.348
				c2.157,2.158,3.349,5.028,3.349,8.079c0,3.052-1.189,5.921-3.349,8.08C19.429,19.584,12.239,26.736,12.239,34.774z M11.423,1.632
				c-2.612,0-5.071,1.019-6.92,2.871c-1.852,1.849-2.87,4.309-2.87,6.924s1.018,5.075,2.87,6.924
				c0.246,0.241,4.984,4.953,6.922,11.255c1.938-6.302,6.684-11.015,6.935-11.261c1.844-1.842,2.863-4.302,2.863-6.918
				s-1.02-5.076-2.87-6.924C16.502,2.651,14.041,1.632,11.423,1.632z"/>
		</g>
		<path fill="#BF198D" d="M11.959,1.083c-10.538,0-11.684,10.023-11.125,11.503c1.07,2.841,9.65,17.02,10.591,17.02
			c0.938,0,9.919-15.108,10.617-17.168C22.496,11.095,21.943,1.083,11.959,1.083z"/>
		<g>
			<path fill="#BF198D" d="M11.421,15.427c-2.275,0-3.993-1.719-3.993-4c0-2.28,1.718-3.999,3.993-3.999
				c2.209,0,4.006,1.792,4.006,3.999C15.427,13.633,13.63,15.427,11.421,15.427z M11.421,9.062c-1.368,0-2.36,0.995-2.36,2.367
				c0,1.372,0.991,2.367,2.36,2.367c1.311,0,2.374-1.061,2.374-2.367S12.73,9.062,11.421,9.062z"/>
		</g>
		<g>
			<path fill="#F2EDE7" d="M11.421,9.062c-1.368,0-2.36,0.995-2.36,2.367c0,1.372,0.991,2.367,2.36,2.367
				c1.311,0,2.374-1.061,2.374-2.367S12.73,9.062,11.421,9.062z"/>
		</g>
	</g>
</g>
</svg>
